<?xml version="1.0" encoding="UTF-8"?>
<svg height="16px" viewBox="0 0 16 16" width="16px" xmlns="http://www.w3.org/2000/svg">
    <g stroke="#3d3846" stroke-linecap="round" stroke-linejoin="round" stroke-width="2">
        <g fill="#f66151">
            <path d="m 3 1 c -1.105469 0 -2 0.894531 -2 2"/>
            <path d="m 163 173 c -1.105469 0 -2 0.894531 -2 2" transform="matrix(-1 0 0 1 176 -172)"/>
            <path d="m 163 173 c -1.105469 0 -2 0.894531 -2 2" transform="matrix(1 0 0 -1 -160 188)"/>
            <path d="m 163 173 c -1.105469 0 -2 0.894531 -2 2" transform="matrix(-1 0 -0 -1 176 188)"/>
        </g>
        <path d="m 3 5 v 6 h 10 v -6 z m 0 0" fill="none"/>
        <path d="m 3 7 h 10" fill="none"/>
    </g>
</svg>
