<?xml version="1.0" encoding="UTF-8" standalone="no"?>
<svg
   height="128"
   viewBox="0 0 128 128"
   width="128"
   version="1.1"
   id="svg29"
   sodipodi:docname="be.alexandervanhee.gradia.svg"
   inkscape:version="1.4.3 (0d15f75042, 2025-12-25)"
   xmlns:inkscape="http://www.inkscape.org/namespaces/inkscape"
   xmlns:sodipodi="http://sodipodi.sourceforge.net/DTD/sodipodi-0.dtd"
   xmlns="http://www.w3.org/2000/svg"
   xmlns:svg="http://www.w3.org/2000/svg">
  <defs
     id="defs29" />
  <sodipodi:namedview
     id="namedview29"
     pagecolor="#ffffff"
     bordercolor="#000000"
     borderopacity="0.25"
     inkscape:showpageshadow="2"
     inkscape:pageopacity="0.0"
     inkscape:pagecheckerboard="0"
     inkscape:deskcolor="#d1d1d1"
     inkscape:zoom="4.4194174"
     inkscape:cx="1.9233304"
     inkscape:cy="78.064589"
     inkscape:window-width="1920"
     inkscape:window-height="1011"
     inkscape:window-x="0"
     inkscape:window-y="0"
     inkscape:window-maximized="1"
     inkscape:current-layer="svg29">
    <inkscape:page
       x="0"
       y="0"
       width="128"
       height="128"
       id="page2"
       margin="0"
       bleed="0" />
  </sodipodi:namedview>
  <linearGradient
     id="a"
     gradientUnits="userSpaceOnUse"
     x1="12"
     x2="116"
     y1="116"
     y2="116">
    <stop
       offset="0"
       stop-color="#711a19"
       id="stop1"
       style="stop-color:#357b7b;stop-opacity:1;" />
    <stop
       offset="0.05"
       stop-color="#fc930d"
       id="stop2"
       style="stop-color:#48b1b1;stop-opacity:1;" />
    <stop
       offset="0.1"
       stop-color="#fc930d"
       id="stop29"
       style="stop-color:#3c9797;stop-opacity:1;" />
    <stop
       offset="0.89999998"
       stop-color="#fc930d"
       id="stop30"
       style="stop-color:#1c71d8;stop-opacity:1;" />
    <stop
       offset="0.94999999"
       stop-color="#b12927"
       id="stop3"
       style="stop-color:#3584e3;stop-opacity:1;" />
    <stop
       offset="1"
       stop-color="#6a1b17"
       id="stop4"
       style="stop-color:#1c71d8;stop-opacity:1;" />
  </linearGradient>
  <linearGradient
     id="b"
     gradientUnits="userSpaceOnUse"
     x1="12.49527"
     x2="116"
     y1="12.495239"
     y2="112">
    <stop
       offset="0"
       stop-color="#62a0ea"
       id="stop5"
       style="stop-color:#59e389;stop-opacity:1;" />
    <stop
       offset="1"
       stop-color="#f66151"
       id="stop9"
       style="stop-color:#3584e3;stop-opacity:1;" />
  </linearGradient>
  <path
     d="m 20,16 h 88 c 4.41797,0 8,3.582031 8,8 v 84 c 0,4.41797 -3.58203,8 -8,8 H 20 c -4.417969,0 -8,-3.58203 -8,-8 V 24 c 0,-4.417969 3.582031,-8 8,-8 z m 0,0"
     fill="url(#a)"
     id="path9"
     style="fill:url(#a)" />
  <path
     d="m 20,12 h 88 c 4.41797,0 8,3.582031 8,8 v 84 c 0,4.41797 -3.58203,8 -8,8 H 20 c -4.417969,0 -8,-3.58203 -8,-8 V 20 c 0,-4.417969 3.582031,-8 8,-8 z m 0,0"
     fill="url(#b)"
     id="path10"
     style="fill:url(#b)" />
  <g
     fill="none"
     stroke-linecap="round"
     stroke-linejoin="round"
     stroke-width="4"
     id="g18">
    <path
       d="m 67,215 h 7 c 2.761719,0 5,2.23828 5,5 v 5"
       stroke="#deddda"
       transform="matrix(-1,0,0,1,99,-194)"
       id="path11" />
    <path
       d="m 96,21 h 7 c 2.76172,0 5,2.238281 5,5 v 5"
       stroke="#deddda"
       id="path12" />
    <path
       d="m 67,215 h 7 c 2.761719,0 5,2.23828 5,5 v 5"
       stroke="#deddda"
       transform="rotate(180,49.5,159.5)"
       id="path13" />
    <path
       d="m 67,215 h 7 c 2.761719,0 5,2.23828 5,5 v 5"
       stroke="#deddda"
       transform="matrix(1,0,0,-1,29,319)"
       id="path14" />
    <path
       d="m 67,216 h 7 c 2.761719,0 5,2.23828 5,5 v 5"
       stroke="#ffffff"
       transform="matrix(-1,0,0,1,99,-196)"
       id="path15" />
    <path
       d="m 96,20 h 7 c 2.76172,0 5,2.238281 5,5 v 5"
       stroke="#ffffff"
       id="path16" />
    <path
       d="m 67,216 h 7 c 2.761719,0 5,2.23828 5,5 v 5"
       stroke="#ffffff"
       transform="rotate(180,49.5,159.5)"
       id="path17" />
    <path
       d="m 67,216 h 7 c 2.761719,0 5,2.23828 5,5 v 5"
       stroke="#ffffff"
       transform="matrix(1,0,0,-1,29,319)"
       id="path18" />
  </g>
  <path
     d="M 44.253906,32 H 83.746094 C 90.515625,32 96,37.484375 96,44.253906 V 83.746094 C 96,90.515625 90.515625,96 83.746094,96 H 44.253906 C 37.484375,96 32,90.515625 32,83.746094 V 44.253906 C 32,37.484375 37.484375,32 44.253906,32 Z m 0,0"
     fill="#ffffff"
     id="path19" />
  <path
     d="m 90,47 c 0,4.96875 -4.03125,9 -9,9 -4.96875,0 -9,-4.03125 -9,-9 0,-4.96875 4.03125,-9 9,-9 4.96875,0 9,4.03125 9,9 z m 0,0"
     fill="#c0bfbc"
     id="path20" />
  <path
     d="m 79,49 4,-4 m -4,0 4,4"
     fill="none"
     stroke="#000000"
     stroke-linecap="round"
     stroke-linejoin="round"
     stroke-width="2"
     id="path21" />
  <path
     d="m 44,44 h 16 c 2.210938,0 4,1.789062 4,4 0,2.210938 -1.789062,4 -4,4 H 44 c -2.210938,0 -4,-1.789062 -4,-4 0,-2.210938 1.789062,-4 4,-4 z m 0,0"
     fill="#c0bfbc"
     id="path22" />
  <path
     d="m 44.296875,62 h 39.40625 C 87.179688,62 90,64.820312 90,68.296875 v 13.40625 C 90,85.179688 87.179688,88 83.703125,88 H 44.296875 C 40.820312,88 38,85.179688 38,81.703125 V 68.296875 C 38,64.820312 40.820312,62 44.296875,62 Z m 0,0"
     fill="#deddda"
     id="path23" />
  <path
     d="m 44,68 h 24 c 1.105469,0 2,0.894531 2,2 0,1.105469 -0.894531,2 -2,2 H 44 c -1.105469,0 -2,-0.894531 -2,-2 0,-1.105469 0.894531,-2 2,-2 z m 0,0"
     fill="#c0bfbc"
     id="path24" />
  <path
     d="m 44,78 h 24 c 1.105469,0 2,0.894531 2,2 0,1.105469 -0.894531,2 -2,2 H 44 c -1.105469,0 -2,-0.894531 -2,-2 0,-1.105469 0.894531,-2 2,-2 z m 0,0"
     fill="#c0bfbc"
     id="path25" />
  <path
     d="m 77,66 h 6 c 2.210938,0 4,1.789062 4,4 0,2.210938 -1.789062,4 -4,4 h -6 c -2.210938,0 -4,-1.789062 -4,-4 0,-2.210938 1.789062,-4 4,-4 z m 0,0"
     fill="#c0bfbc"
     id="path26" />
  <path
     d="m 77,67 c 1.65625,0 3,1.34375 3,3 0,1.65625 -1.34375,3 -3,3 -1.65625,0 -3,-1.34375 -3,-3 0,-1.65625 1.34375,-3 3,-3 z m 0,0"
     fill="#5e5c64"
     id="path27" />
  <path
     d="m 77,76 h 6 c 2.210938,0 4,1.789062 4,4 0,2.210938 -1.789062,4 -4,4 h -6 c -2.210938,0 -4,-1.789062 -4,-4 0,-2.210938 1.789062,-4 4,-4 z m 0,0"
     fill="#3584e4"
     id="path28" />
  <path
     d="m 83,77 c 1.65625,0 3,1.34375 3,3 0,1.65625 -1.34375,3 -3,3 -1.65625,0 -3,-1.34375 -3,-3 0,-1.65625 1.34375,-3 3,-3 z m 0,0"
     fill="#ffffff"
     id="path29" />
</svg>
