<?xml version="1.0" encoding="UTF-8" standalone="no"?>
<svg
   height="128px"
   viewBox="0 0 128 128"
   width="128px"
   version="1.1"
   id="svg60"
   sodipodi:docname="be.alexandervanhee.gradia.Devel.svg"
   inkscape:version="1.4.3 (0d15f75042, 2025-12-25)"
   xmlns:inkscape="http://www.inkscape.org/namespaces/inkscape"
   xmlns:sodipodi="http://sodipodi.sourceforge.net/DTD/sodipodi-0.dtd"
   xmlns="http://www.w3.org/2000/svg"
   xmlns:svg="http://www.w3.org/2000/svg">
  <defs
     id="defs60" />
  <sodipodi:namedview
     id="namedview60"
     pagecolor="#ffffff"
     bordercolor="#000000"
     borderopacity="0.25"
     inkscape:showpageshadow="2"
     inkscape:pageopacity="0.0"
     inkscape:pagecheckerboard="0"
     inkscape:deskcolor="#d1d1d1"
     inkscape:zoom="3.125"
     inkscape:cx="32.96"
     inkscape:cy="70.08"
     inkscape:window-width="1920"
     inkscape:window-height="1011"
     inkscape:window-x="0"
     inkscape:window-y="0"
     inkscape:window-maximized="1"
     inkscape:current-layer="g57" />
  <filter
     id="a"
     height="1"
     width="1"
     x="0"
     y="0">
    <feColorMatrix
       color-interpolation-filters="sRGB"
       values="0 0 0 0 1 0 0 0 0 1 0 0 0 0 1 0 0 0 1 0"
       id="feColorMatrix1" />
  </filter>
  <linearGradient
     id="b"
     gradientUnits="userSpaceOnUse"
     x1="12"
     x2="116"
     y1="116"
     y2="116">
    <stop
       offset="0"
       stop-color="#711a19"
       id="stop1" />
    <stop
       offset="0.0640208"
       stop-color="#fc930d"
       id="stop2" />
    <stop
       offset="0.944505"
       stop-color="#b12927"
       id="stop3" />
    <stop
       offset="1"
       stop-color="#6a1b17"
       id="stop4" />
  </linearGradient>
  <linearGradient
     id="c"
     gradientUnits="userSpaceOnUse"
     x1="12.49527"
     x2="116"
     y1="12.495239"
     y2="112">
    <stop
       offset="0"
       stop-color="#62a0ea"
       id="stop5" />
    <stop
       offset="0.195896"
       stop-color="#33d17a"
       id="stop6" />
    <stop
       offset="0.500023"
       stop-color="#f6d32d"
       id="stop7" />
    <stop
       offset="0.73145"
       stop-color="#ff7800"
       id="stop8" />
    <stop
       offset="1"
       stop-color="#f66151"
       id="stop9" />
  </linearGradient>
  <clipPath
     id="d">
    <rect
       height="128"
       width="128"
       id="rect9" />
  </clipPath>
  <clipPath
     id="e">
    <rect
       height="128"
       width="128"
       id="rect10" />
  </clipPath>
  <mask
     id="f">
    <g
       filter="url(#a)"
       id="g32">
      <g
         clip-path="url(#e)"
         filter="url(#a)"
         id="g31">
        <g
           clip-path="url(#d)"
           id="g30">
          <path
             d="m 20 16 h 88 c 4.417969 0 8 3.582031 8 8 v 84 c 0 4.417969 -3.582031 8 -8 8 h -88 c -4.417969 0 -8 -3.582031 -8 -8 v -84 c 0 -4.417969 3.582031 -8 8 -8 z m 0 0"
             fill="url(#b)"
             id="path10" />
          <path
             d="m 20 12 h 88 c 4.417969 0 8 3.582031 8 8 v 84 c 0 4.417969 -3.582031 8 -8 8 h -88 c -4.417969 0 -8 -3.582031 -8 -8 v -84 c 0 -4.417969 3.582031 -8 8 -8 z m 0 0"
             fill="url(#c)"
             id="path11" />
          <path
             d="m 67 215 h 7 c 2.761719 0 5 2.238281 5 5 v 5"
             fill="none"
             stroke="#deddda"
             stroke-linecap="round"
             stroke-linejoin="round"
             stroke-width="4"
             transform="matrix(-1 0 0 1 99 -194)"
             id="path12" />
          <path
             d="m 67 215 h 7 c 2.761719 0 5 2.238281 5 5 v 5"
             fill="none"
             stroke="#deddda"
             stroke-linecap="round"
             stroke-linejoin="round"
             stroke-width="4"
             transform="matrix(1 0 0 1 29 -194)"
             id="path13" />
          <path
             d="m 67 215 h 7 c 2.761719 0 5 2.238281 5 5 v 5"
             fill="none"
             stroke="#deddda"
             stroke-linecap="round"
             stroke-linejoin="round"
             stroke-width="4"
             transform="matrix(-1 0 -0 -1 99 319)"
             id="path14" />
          <path
             d="m 67 215 h 7 c 2.761719 0 5 2.238281 5 5 v 5"
             fill="none"
             stroke="#deddda"
             stroke-linecap="round"
             stroke-linejoin="round"
             stroke-width="4"
             transform="matrix(1 0 0 -1 29 319)"
             id="path15" />
          <path
             d="m 67 216 h 7 c 2.761719 0 5 2.238281 5 5 v 5"
             fill="none"
             stroke="#ffffff"
             stroke-linecap="round"
             stroke-linejoin="round"
             stroke-width="4"
             transform="matrix(-1 0 0 1 99 -196)"
             id="path16" />
          <path
             d="m 67 216 h 7 c 2.761719 0 5 2.238281 5 5 v 5"
             fill="none"
             stroke="#ffffff"
             stroke-linecap="round"
             stroke-linejoin="round"
             stroke-width="4"
             transform="matrix(1 0 0 1 29 -196)"
             id="path17" />
          <path
             d="m 67 216 h 7 c 2.761719 0 5 2.238281 5 5 v 5"
             fill="none"
             stroke="#ffffff"
             stroke-linecap="round"
             stroke-linejoin="round"
             stroke-width="4"
             transform="matrix(-1 0 -0 -1 99 319)"
             id="path18" />
          <path
             d="m 67 216 h 7 c 2.761719 0 5 2.238281 5 5 v 5"
             fill="none"
             stroke="#ffffff"
             stroke-linecap="round"
             stroke-linejoin="round"
             stroke-width="4"
             transform="matrix(1 0 0 -1 29 319)"
             id="path19" />
          <path
             d="m 44.253906 32 h 39.492188 c 6.769531 0 12.253906 5.484375 12.253906 12.253906 v 39.492188 c 0 6.769531 -5.484375 12.253906 -12.253906 12.253906 h -39.492188 c -6.769531 0 -12.253906 -5.484375 -12.253906 -12.253906 v -39.492188 c 0 -6.769531 5.484375 -12.253906 12.253906 -12.253906 z m 0 0"
             fill="#ffffff"
             id="path20" />
          <path
             d="m 90 47 c 0 4.96875 -4.03125 9 -9 9 s -9 -4.03125 -9 -9 s 4.03125 -9 9 -9 s 9 4.03125 9 9 z m 0 0"
             fill="#c0bfbc"
             id="path21" />
          <path
             d="m 79 221 l 4 -4 m -4 0 l 4 4"
             fill="none"
             stroke="#000000"
             stroke-linecap="round"
             stroke-linejoin="round"
             stroke-width="2"
             transform="matrix(1 0 0 1 0 -172)"
             id="path22" />
          <path
             d="m 44 44 h 16 c 2.210938 0 4 1.789062 4 4 s -1.789062 4 -4 4 h -16 c -2.210938 0 -4 -1.789062 -4 -4 s 1.789062 -4 4 -4 z m 0 0"
             fill="#c0bfbc"
             id="path23" />
          <path
             d="m 44.296875 62 h 39.40625 c 3.476563 0 6.296875 2.820312 6.296875 6.296875 v 13.40625 c 0 3.476563 -2.820312 6.296875 -6.296875 6.296875 h -39.40625 c -3.476563 0 -6.296875 -2.820312 -6.296875 -6.296875 v -13.40625 c 0 -3.476563 2.820312 -6.296875 6.296875 -6.296875 z m 0 0"
             fill="#deddda"
             id="path24" />
          <path
             d="m 44 68 h 24 c 1.105469 0 2 0.894531 2 2 s -0.894531 2 -2 2 h -24 c -1.105469 0 -2 -0.894531 -2 -2 s 0.894531 -2 2 -2 z m 0 0"
             fill="#c0bfbc"
             id="path25" />
          <path
             d="m 44 78 h 24 c 1.105469 0 2 0.894531 2 2 s -0.894531 2 -2 2 h -24 c -1.105469 0 -2 -0.894531 -2 -2 s 0.894531 -2 2 -2 z m 0 0"
             fill="#c0bfbc"
             id="path26" />
          <path
             d="m 77 66 h 6 c 2.210938 0 4 1.789062 4 4 s -1.789062 4 -4 4 h -6 c -2.210938 0 -4 -1.789062 -4 -4 s 1.789062 -4 4 -4 z m 0 0"
             fill="#c0bfbc"
             id="path27" />
          <path
             d="m 77 67 c 1.65625 0 3 1.34375 3 3 s -1.34375 3 -3 3 s -3 -1.34375 -3 -3 s 1.34375 -3 3 -3 z m 0 0"
             fill="#5e5c64"
             id="path28" />
          <path
             d="m 77 76 h 6 c 2.210938 0 4 1.789062 4 4 s -1.789062 4 -4 4 h -6 c -2.210938 0 -4 -1.789062 -4 -4 s 1.789062 -4 4 -4 z m 0 0"
             fill="#3584e4"
             id="path29" />
          <path
             d="m 83 77 c 1.65625 0 3 1.34375 3 3 s -1.34375 3 -3 3 s -3 -1.34375 -3 -3 s 1.34375 -3 3 -3 z m 0 0"
             fill="#ffffff"
             id="path30" />
        </g>
      </g>
    </g>
  </mask>
  <mask
     id="g">
    <g
       filter="url(#a)"
       id="g33">
      <rect
         fill-opacity="0.8"
         height="184.32"
         width="184.32"
         x="-28.16"
         y="-28.16"
         id="rect32" />
    </g>
  </mask>
  <linearGradient
     id="h"
     gradientTransform="matrix(0,0.91875725,-0.98462,0,295.38501,-265.2281)"
     gradientUnits="userSpaceOnUse"
     x1="300"
     x2="428"
     y1="235"
     y2="235">
    <stop
       offset="0"
       stop-color="#f9f06b"
       id="stop33" />
    <stop
       offset="1"
       stop-color="#f5c211"
       id="stop34" />
  </linearGradient>
  <clipPath
     id="i">
    <rect
       height="128"
       width="128"
       id="rect34" />
  </clipPath>
  <clipPath
     id="j">
    <rect
       height="128"
       width="128"
       id="rect35" />
  </clipPath>
  <path
     d="m 20 16 h 88 c 4.417969 0 8 3.582031 8 8 v 84 c 0 4.417969 -3.582031 8 -8 8 h -88 c -4.417969 0 -8 -3.582031 -8 -8 v -84 c 0 -4.417969 3.582031 -8 8 -8 z m 0 0"
     fill="url(#b)"
     id="path35" />
  <path
     d="m 20 12 h 88 c 4.417969 0 8 3.582031 8 8 v 84 c 0 4.417969 -3.582031 8 -8 8 h -88 c -4.417969 0 -8 -3.582031 -8 -8 v -84 c 0 -4.417969 3.582031 -8 8 -8 z m 0 0"
     fill="url(#c)"
     id="path36" />
  <g
     mask="url(#f)"
     id="g60">
    <g
       clip-path="url(#j)"
       id="g59">
      <g
         mask="url(#g)"
         id="g58">
        <g
           clip-path="url(#i)"
           id="g57">
          <path
             d="M 128,10.400625 V 128 H 0 V 10.400625 Z m 0,0"
             fill="url(#h)"
             id="path56"
             style="fill:url(#h);stroke-width:1.57579" />
          <path
             d="m 13.308594 80.640625 l 47.355468 47.359375 h 21.214844 l -47.359375 -47.359375 z m 42.421875 0 l 47.363281 47.359375 h 21.214844 l -47.363282 -47.359375 z m 42.429687 0 l 29.839844 29.839844 v -21.210938 l -8.628906 -8.628906 z m -98.160156 7.90625 v 21.214844 l 18.238281 18.238281 h 21.214844 z m 0 0"
             id="path57"
             inkscape:label="stripes3" />
          <path
             d="M 7.5400515,-9.9753247 54.895518,37.38405 h 21.21484 L 28.750989,-9.9753247 Z m 42.4218765,0 47.36328,47.3593747 H 118.54005 L 71.176768,-9.9753247 Z m 42.42968,0 L 122.23146,19.86452 V -1.3464187 l -8.62891,-8.628906 z m -98.1601505,7.90625 V 19.14577 L 12.469739,37.38405 h 21.214844 z m 0,0"
             id="path57-56-9"
             inkscape:label="stripes2" />
          <path
             d="M 9.797467,34.691716 57.152935,82.051091 H 78.367779 L 31.008404,34.691716 Z m 42.421875,0 47.363281,47.359375 H 120.79746 L 73.434185,34.691716 Z m 42.429687,0 29.839841,29.839845 V 43.320622 l -8.62891,-8.628906 z m -98.160156,7.90625 v 21.214845 l 18.238281,18.23828 h 21.214844 z m 0,0"
             id="path57-5"
             inkscape:label="stripes1" />
        </g>
      </g>
    </g>
  </g>
  <g
     fill="none"
     stroke-linecap="round"
     stroke-linejoin="round"
     stroke-width="4"
     id="g44">
    <path
       d="m 67 215 h 7 c 2.761719 0 5 2.238281 5 5 v 5"
       stroke="#deddda"
       transform="matrix(-1 0 0 1 99 -194)"
       id="path37" />
    <path
       d="m 96 21 h 7 c 2.761719 0 5 2.238281 5 5 v 5"
       stroke="#deddda"
       id="path38" />
    <path
       d="m 67 215 h 7 c 2.761719 0 5 2.238281 5 5 v 5"
       stroke="#deddda"
       transform="matrix(-1 0 -0 -1 99 319)"
       id="path39" />
    <path
       d="m 67 215 h 7 c 2.761719 0 5 2.238281 5 5 v 5"
       stroke="#deddda"
       transform="matrix(1 0 0 -1 29 319)"
       id="path40" />
    <path
       d="m 67 216 h 7 c 2.761719 0 5 2.238281 5 5 v 5"
       stroke="#ffffff"
       transform="matrix(-1 0 0 1 99 -196)"
       id="path41" />
    <path
       d="m 96 20 h 7 c 2.761719 0 5 2.238281 5 5 v 5"
       stroke="#ffffff"
       id="path42" />
    <path
       d="m 67 216 h 7 c 2.761719 0 5 2.238281 5 5 v 5"
       stroke="#ffffff"
       transform="matrix(-1 0 -0 -1 99 319)"
       id="path43" />
    <path
       d="m 67 216 h 7 c 2.761719 0 5 2.238281 5 5 v 5"
       stroke="#ffffff"
       transform="matrix(1 0 0 -1 29 319)"
       id="path44" />
  </g>
  <path
     d="m 44.253906 32 h 39.492188 c 6.769531 0 12.253906 5.484375 12.253906 12.253906 v 39.492188 c 0 6.769531 -5.484375 12.253906 -12.253906 12.253906 h -39.492188 c -6.769531 0 -12.253906 -5.484375 -12.253906 -12.253906 v -39.492188 c 0 -6.769531 5.484375 -12.253906 12.253906 -12.253906 z m 0 0"
     fill="#ffffff"
     id="path45" />
  <path
     d="m 90 47 c 0 4.96875 -4.03125 9 -9 9 s -9 -4.03125 -9 -9 s 4.03125 -9 9 -9 s 9 4.03125 9 9 z m 0 0"
     fill="#c0bfbc"
     id="path46" />
  <path
     d="m 79 49 l 4 -4 m -4 0 l 4 4"
     fill="none"
     stroke="#000000"
     stroke-linecap="round"
     stroke-linejoin="round"
     stroke-width="2"
     id="path47" />
  <path
     d="m 44 44 h 16 c 2.210938 0 4 1.789062 4 4 s -1.789062 4 -4 4 h -16 c -2.210938 0 -4 -1.789062 -4 -4 s 1.789062 -4 4 -4 z m 0 0"
     fill="#c0bfbc"
     id="path48" />
  <path
     d="m 44.296875 62 h 39.40625 c 3.476563 0 6.296875 2.820312 6.296875 6.296875 v 13.40625 c 0 3.476563 -2.820312 6.296875 -6.296875 6.296875 h -39.40625 c -3.476563 0 -6.296875 -2.820312 -6.296875 -6.296875 v -13.40625 c 0 -3.476563 2.820312 -6.296875 6.296875 -6.296875 z m 0 0"
     fill="#deddda"
     id="path49" />
  <path
     d="m 44 68 h 24 c 1.105469 0 2 0.894531 2 2 s -0.894531 2 -2 2 h -24 c -1.105469 0 -2 -0.894531 -2 -2 s 0.894531 -2 2 -2 z m 0 0"
     fill="#c0bfbc"
     id="path50" />
  <path
     d="m 44 78 h 24 c 1.105469 0 2 0.894531 2 2 s -0.894531 2 -2 2 h -24 c -1.105469 0 -2 -0.894531 -2 -2 s 0.894531 -2 2 -2 z m 0 0"
     fill="#c0bfbc"
     id="path51" />
  <path
     d="m 77 66 h 6 c 2.210938 0 4 1.789062 4 4 s -1.789062 4 -4 4 h -6 c -2.210938 0 -4 -1.789062 -4 -4 s 1.789062 -4 4 -4 z m 0 0"
     fill="#c0bfbc"
     id="path52" />
  <path
     d="m 77 67 c 1.65625 0 3 1.34375 3 3 s -1.34375 3 -3 3 s -3 -1.34375 -3 -3 s 1.34375 -3 3 -3 z m 0 0"
     fill="#5e5c64"
     id="path53" />
  <path
     d="m 77 76 h 6 c 2.210938 0 4 1.789062 4 4 s -1.789062 4 -4 4 h -6 c -2.210938 0 -4 -1.789062 -4 -4 s 1.789062 -4 4 -4 z m 0 0"
     fill="#3584e4"
     id="path54" />
  <path
     d="m 83 77 c 1.65625 0 3 1.34375 3 3 s -1.34375 3 -3 3 s -3 -1.34375 -3 -3 s 1.34375 -3 3 -3 z m 0 0"
     fill="#ffffff"
     id="path55" />
</svg>
