<?xml version="1.0" encoding="UTF-8"?>
<svg xmlns="http://www.w3.org/2000/svg" height="16px" viewBox="0 0 16 16" width="16px"><g fill="#222222"><path d="m 4.015625 2.003906 c -0.449219 0 -0.84375 0.300782 -0.960937 0.738282 l -3.054688 11.257812 h 2.070312 l 0.640626 -1.996094 h 4.59375 l 0.625 1.996094 h 2.070312 l -3.417969 -11.257812 c -0.117187 -0.4375 -0.511719 -0.738282 -0.964843 -0.738282 z m 0.789063 1.996094 c 0.125 0.003906 0.238281 0.023438 0.296874 0.242188 l 1.753907 5.761718 h -3.710938 l 1.367188 -5.792968 c 0.046875 -0.195313 0.171875 -0.214844 0.292969 -0.210938 z m 0 0"/><g transform="translate(8,0) scale(0.4)"><path d="m 10.875 10.0625 c -0.8125 0.148438 -1.105469 1.160156 -0.5 1.71875 l 3 3 c 0.957031 0.9375 2.363281 -0.5 1.40625 -1.4375 l -3 -3 c -0.234375 -0.238281 -0.578125 -0.347656 -0.90625 -0.28125 z m 0 0"/><path d="m 6.570312 0.0625 c -3.578124 0 -6.4999995 2.921875 -6.4999995 6.5 s 2.9218755 6.5 6.4999995 6.5 c 3.578126 0 6.5 -2.921875 6.5 -6.5 s -2.921874 -6.5 -6.5 -6.5 z m 0 2 c 2.496094 0 4.5 2.003906 4.5 4.5 c 0 2.5 -2.003906 4.5 -4.5 4.5 c -2.496093 0 -4.5 -2 -4.5 -4.5 c 0 -2.496094 2.003907 -4.5 4.5 -4.5 z m 0 0"/></g></g></svg>